# xmcd CD database file
#
# Track frame offsets:
#	150
#	18371
#	36462
#	53081
#	69979
#	87239
#	102206
#	122158
#	140150
#	160987
#	179207
#	194648
#	215488
#	235661
#	250158
#
# Disc length: 3659 seconds
#
# Revision: 0
# Processed by: cddbd v1.5.2PL0 Copyright (c) Steve Scherf et al.
# Submitted via: CDex 1.78
#
DISCID=de0e490f
DTITLE=Rim Banna, Bugge Wesseltoft - Voice of Resistance
DYEAR=2018
DGENRE=Arabic
TTITLE0=Language Of Silence
TTITLE1=A Rose In the Battlefield
TTITLE2=Daughter of the Desert
TTITLE3=Released
TTITLE4=Deadly Music
TTITLE5=This Is My Voice
TTITLE6=I Don't Care
TTITLE7=The Last Cord
TTITLE8=Rim
TTITLE9=My Dream Road Of Roses
TTITLE10=Ascending To The Sun
TTITLE11=My Songs Will Sound From the Squares
TTITLE12=Unable
TTITLE13=Loving You
TTITLE14=Maryam
EXTD=YEAR: 2018
EXTT0=
EXTT1=
EXTT2=
EXTT3=
EXTT4=
EXTT5=
EXTT6=
EXTT7=
EXTT8=
EXTT9=
EXTT10=
EXTT11=
EXTT12=
EXTT13=
EXTT14=
PLAYORDER=
